<?xml version="1.0" standalone="no"?>
<!DOCTYPE svg PUBLIC "-//W3C//DTD SVG 20010904//EN"
 "http://www.w3.org/TR/2001/REC-SVG-20010904/DTD/svg10.dtd">
<svg version="1.0" xmlns="http://www.w3.org/2000/svg"
 width="1200.000000pt" height="1200.000000pt" viewBox="0 0 1200.000000 1200.000000"
 preserveAspectRatio="xMidYMid meet">
<metadata>
Created by potrace 1.14, written by Peter Selinger 2001-2017
</metadata>
<g transform="translate(0.000000,1200.000000) scale(0.100000,-0.100000)"
fill="#000000" stroke="none">
<path d="M0 6000 l0 -6000 6000 0 6000 0 0 6000 0 6000 -6000 0 -6000 0 0
-6000z m6690 3382 c0 -4 -155 -162 -345 -352 l-345 -345 -353 353 -352 352
698 0 c383 0 697 -3 697 -8z m-2733 -374 l373 -373 0 -1520 0 -1520 -123 -123
-123 -122 -254 2 -255 3 -3 2013 c-1 1106 1 2012 5 2012 5 0 176 -168 380
-372z m4471 -1640 l-3 -2013 -377 -3 -378 -2 0 1642 0 1643 372 372 c205 205
376 373 380 373 5 0 7 -906 6 -2012z m-3451 610 l373 -373 0 -426 0 -426 -372
-366 c-205 -201 -376 -368 -380 -372 -3 -4 -6 520 -6 1164 0 644 3 1171 6
1171 4 0 175 -168 379 -372z m2423 -1203 l0 -1425 -375 0 -375 0 0 1052 0
1053 372 372 c205 205 374 373 375 373 2 0 3 -641 3 -1425z m-1550 460 c0 -6
-52 -62 -115 -125 l-115 -115 0 240 0 240 115 -115 c63 -63 115 -119 115 -125z
m530 -890 l0 -995 -375 0 -375 0 0 628 0 627 372 367 c205 202 374 367 376
368 1 0 2 -448 2 -995z m-1020 -505 l0 -490 -490 0 c-269 0 -490 2 -490 5 0 5
972 974 978 975 1 0 2 -220 2 -490z m1691 -1430 c18 -10 19 -25 19 -350 0
-325 -1 -340 -19 -350 -30 -15 -92 -12 -113 7 -17 15 -18 39 -18 341 0 289 2
327 17 344 18 20 82 25 114 8z m-2901 -36 c14 -13 48 -64 75 -113 28 -50 53
-91 56 -91 4 0 32 45 64 100 31 55 67 107 80 116 36 23 103 21 129 -5 20 -21
21 -30 24 -331 3 -300 2 -310 -17 -329 -23 -23 -88 -29 -122 -11 -18 10 -19
23 -19 198 l0 187 -42 -70 c-54 -93 -66 -105 -99 -105 -31 0 -48 20 -95 110
l-29 55 -5 -178 c-6 -201 -8 -207 -83 -207 -81 0 -77 -19 -77 335 0 172 3 321
6 330 10 24 63 44 99 38 17 -3 41 -16 55 -29z m3248 -20 c12 -14 22 -33 22
-42 -1 -34 -48 -72 -89 -72 -31 0 -73 42 -73 73 0 72 89 98 140 41z m-2380
-195 c96 -20 173 -120 158 -203 -11 -57 -34 -66 -163 -66 -103 0 -113 -2 -113
-18 0 -54 86 -75 168 -43 l53 21 24 -25 c67 -66 -17 -135 -166 -135 -111 0
-204 60 -229 148 -42 152 29 289 165 323 43 10 49 10 103 -2z m611 -17 c48
-23 57 -42 42 -80 -17 -41 -40 -47 -99 -26 -56 20 -105 13 -100 -13 2 -12 28
-25 78 -40 99 -30 132 -62 137 -135 8 -101 -60 -158 -187 -157 -135 0 -209 56
-170 128 14 28 38 33 73 15 73 -38 147 -39 147 -3 0 21 -17 30 -101 53 -104
29 -145 109 -101 195 20 41 57 70 103 81 46 12 136 2 178 -18z m533 -3 c48
-24 59 -60 31 -97 -22 -29 -34 -30 -124 -17 -67 10 -89 -13 -89 -96 0 -33 4
-68 10 -78 14 -27 72 -35 116 -16 48 20 60 19 84 -5 41 -41 16 -103 -53 -129
-42 -16 -152 -13 -195 5 -89 37 -129 120 -119 251 9 115 57 179 152 202 53 13
141 4 187 -20z m483 2 c85 -38 104 -87 105 -270 0 -157 -6 -171 -76 -171 -34
0 -47 5 -61 24 l-18 23 -33 -25 c-25 -19 -50 -27 -91 -30 -50 -4 -61 -1 -89
23 -40 34 -57 90 -42 143 17 65 68 95 183 107 72 8 83 20 50 57 -20 23 -64 23
-127 1 l-48 -18 -20 24 c-28 36 -21 81 19 103 68 40 170 43 248 9z m1275 7
c49 -25 84 -70 100 -127 5 -20 10 -93 10 -163 0 -120 -1 -128 -22 -142 -12 -9
-38 -16 -58 -16 -20 0 -46 7 -58 16 -21 14 -22 22 -22 144 0 120 -2 131 -22
150 -26 24 -46 25 -76 4 -21 -14 -22 -22 -22 -145 0 -151 -9 -169 -82 -169
-76 0 -78 5 -78 231 0 193 1 198 22 213 34 24 85 20 111 -8 22 -23 22 -23 41
-4 19 18 64 35 96 37 9 1 36 -9 60 -21z m-513 -14 c10 -13 13 -67 13 -206 0
-175 -1 -189 -20 -208 -25 -25 -95 -27 -122 -3 -16 15 -18 35 -18 214 0 194 0
198 23 214 29 21 105 14 124 -11z m-849 -1197 c2 -214 1 -227 -16 -227 -10 0
-23 5 -29 11 -8 8 -18 6 -37 -6 -47 -31 -111 -4 -145 62 -15 30 -14 117 3 158
24 58 100 82 151 49 l25 -16 0 94 c0 98 4 111 30 106 13 -3 15 -35 18 -231z
m-2443 201 c35 -16 31 -54 -5 -50 -14 2 -44 6 -66 9 -47 5 -79 -7 -86 -35 -10
-37 11 -61 84 -96 85 -40 108 -71 108 -141 0 -40 -5 -52 -33 -80 -40 -40 -92
-53 -150 -35 -50 14 -77 36 -77 62 0 28 26 32 56 9 33 -26 99 -28 126 -4 21
19 24 71 6 95 -7 9 -44 31 -81 49 -78 37 -97 58 -97 111 0 51 17 84 54 102 37
19 125 21 161 4z m1070 -38 c0 -18 -6 -26 -23 -28 -13 -2 -25 3 -28 12 -10 26
4 48 28 44 17 -2 23 -10 23 -28z m2233 -37 l3 -62 42 -3 c34 -2 42 -7 42 -23
0 -16 -8 -21 -43 -23 l-43 -3 3 -92 3 -92 32 -3 c34 -3 59 -25 48 -42 -11 -18
-91 -12 -116 9 -23 19 -24 24 -27 196 -2 98 -1 184 2 192 4 8 16 13 28 11 21
-3 23 -9 26 -65z m-2956 -102 c21 -23 28 -42 28 -71 0 -50 -20 -60 -116 -60
-57 0 -64 -2 -64 -19 0 -46 60 -71 122 -50 34 11 41 11 49 -2 12 -19 -22 -46
-69 -55 -53 -10 -111 13 -140 56 -21 30 -23 44 -20 104 4 64 6 70 42 103 36
33 42 35 89 30 41 -3 56 -10 79 -36z m188 24 c11 -13 15 -13 33 0 31 22 72 18
104 -9 l28 -24 28 24 c43 36 91 32 133 -10 l34 -34 0 -111 c0 -110 0 -111 -24
-111 -31 0 -36 15 -36 118 0 113 -28 148 -88 106 -20 -14 -22 -24 -22 -104 0
-105 -5 -120 -36 -120 -24 0 -24 1 -24 100 0 87 -3 103 -20 120 -24 24 -49 25
-76 6 -16 -12 -20 -30 -24 -118 -5 -102 -5 -103 -30 -103 l-25 0 -3 134 c-2
101 1 136 10 143 18 11 24 10 38 -7z m528 7 c9 -7 12 -42 10 -143 l-3 -134
-25 0 -25 0 -3 134 c-2 129 2 151 28 151 3 0 11 -4 18 -8z m306 -3 c29 -14 38
-30 26 -49 -7 -11 -14 -12 -35 -2 -72 33 -115 1 -115 -86 0 -90 13 -99 125
-90 46 4 46 -28 1 -47 -70 -29 -143 -8 -170 50 -35 73 -11 195 44 222 31 16
91 17 124 2z m313 -9 c37 -22 48 -41 58 -96 19 -119 -72 -211 -168 -170 -57
23 -79 67 -75 150 4 64 6 70 41 102 43 40 94 45 144 14z m223 5 c11 -13 15
-13 33 0 35 24 83 19 119 -14 l33 -29 3 -116 4 -116 -25 0 c-24 0 -25 1 -29
101 -3 91 -6 103 -27 120 -28 23 -50 24 -77 5 -16 -12 -20 -30 -24 -118 -5
-102 -5 -103 -30 -103 l-25 0 -3 134 c-2 101 1 136 10 143 18 11 24 10 38 -7z
m718 3 c8 -8 12 -46 12 -102 0 -50 4 -96 8 -102 23 -35 86 -36 108 -2 5 7 11
58 14 113 5 92 7 100 25 100 19 0 20 -8 23 -107 l3 -108 -33 -35 c-44 -49 -98
-57 -148 -23 -19 13 -40 35 -47 48 -17 34 -18 217 0 223 19 8 22 8 35 -5z
m486 1 c29 -14 38 -30 26 -49 -7 -11 -14 -12 -35 -2 -72 33 -115 1 -115 -86 0
-90 13 -99 125 -90 46 4 46 -28 1 -47 -70 -29 -143 -8 -170 50 -35 73 -11 195
44 222 31 16 91 17 124 2z m553 -9 c37 -22 48 -41 58 -96 19 -119 -72 -211
-168 -170 -57 23 -79 67 -75 150 4 64 6 70 41 102 43 40 94 45 144 14z m223 5
c11 -13 15 -13 33 0 12 8 36 15 54 15 29 0 33 -3 33 -25 0 -21 -5 -25 -29 -25
-16 0 -39 -9 -52 -19 -22 -17 -25 -29 -29 -118 -5 -97 -5 -98 -30 -98 l-25 0
-3 134 c-2 101 1 136 10 143 18 11 24 10 38 -7z"/>
<path d="M4917 4032 c-10 -10 -17 -26 -17 -35 0 -14 11 -17 65 -17 57 0 65 2
65 18 0 46 -81 70 -113 34z"/>
<path d="M6531 3881 c-33 -9 -49 -36 -35 -58 17 -28 41 -27 69 3 45 49 31 73
-34 55z"/>
<path d="M6402 2930 c-18 -17 -22 -32 -22 -80 0 -51 3 -61 27 -79 51 -41 103
0 103 81 0 81 -59 123 -108 78z"/>
<path d="M4327 2932 c-10 -10 -17 -26 -17 -35 0 -14 11 -17 65 -17 70 0 78 7
49 48 -19 28 -74 30 -97 4z"/>
<path d="M5690 2930 c-16 -16 -20 -33 -20 -79 0 -53 3 -62 27 -80 51 -41 103
0 103 81 0 81 -63 125 -110 78z"/>
<path d="M7670 2930 c-16 -16 -20 -33 -20 -79 0 -53 3 -62 27 -80 51 -41 103
0 103 81 0 81 -63 125 -110 78z"/>
</g>
</svg>
